<svg version="1.1" xmlns="http://www.w3.org/2000/svg" xmlns:xlink="http://www.w3.org/1999/xlink" width="48.000000pt" height="48.000000pt" viewBox="0,0,256,256"><g fill-opacity="0.6902" fill="#ee4646" fill-rule="nonzero" stroke="none" stroke-width="1" stroke-linecap="butt" stroke-linejoin="miter" stroke-miterlimit="10" stroke-dasharray="" stroke-dashoffset="0" font-family="none" font-weight="none" font-size="none" text-anchor="none" style="mix-blend-mode: normal"><g transform="translate(-0.49934,0.81389) scale(5.33333,5.33333)"><g transform="translate(0,48) scale(0.1,-0.1)"><path d="M175,421c-22,-10 -50,-29 -62,-42c-45,-49 -64,-131 -44,-184c5,-12 1,-42 -12,-78c-26,-77 -17,-86 60,-60c36,13 66,17 78,12c33,-13 83,-10 123,6c160,67 160,283 0,350c-49,20 -94,19 -143,-4zM316,384c149,-71 78,-303 -85,-279c-65,9 -72,9 -105,0c-28,-8 -29,-7 -21,21c9,33 9,40 0,105c-18,117 103,204 211,153z"></path></g></g></g></svg>