<svg version="1.1" xmlns="http://www.w3.org/2000/svg" xmlns:xlink="http://www.w3.org/1999/xlink" width="30.000000pt" height="30.000000pt" viewBox="0,0,256,256"><g fill="#ffffff" fill-rule="nonzero" stroke="none" stroke-width="1" stroke-linecap="butt" stroke-linejoin="miter" stroke-miterlimit="10" stroke-dasharray="" stroke-dashoffset="0" font-family="none" font-weight="none" font-size="none" text-anchor="none" style="mix-blend-mode: normal"><g transform="translate(-1.35841,-5.88073) scale(8.53333,8.53333)"><g transform="translate(0,30) scale(0.1,-0.1)"><path d="M50,270l-35,-5v-125v-125l90,-1l90,-1l-85,6l-85,6l-3,93l-3,92h130h130l4,-52c3,-42 4,-37 5,25c1,56 -2,79 -11,83c-19,7 -185,10 -227,4zM278,238c3,-16 -8,-18 -127,-18c-103,0 -131,3 -131,13c0,8 2,16 5,19c3,3 61,5 128,4c107,-1 122,-3 125,-18z"></path><path d="M32,178c2,-15 10,-23 23,-23c13,0 21,8 23,23c3,18 -1,22 -23,22c-22,0 -26,-4 -23,-22zM68,179c-2,-6 -8,-10 -13,-10c-5,0 -11,4 -13,10c-2,6 4,11 13,11c9,0 15,-5 13,-11z"></path><path d="M92,178c2,-15 10,-23 23,-23c13,0 21,8 23,23c3,18 -1,22 -23,22c-22,0 -26,-4 -23,-22zM130,174c0,-9 -5,-14 -12,-12c-18,6 -21,28 -4,28c9,0 16,-7 16,-16z"></path><path d="M162,178c2,-15 10,-23 23,-23c13,0 21,8 23,23c3,18 -1,22 -23,22c-22,0 -26,-4 -23,-22zM198,178c-6,-18 -28,-21 -28,-4c0,9 7,16 16,16c9,0 14,-5 12,-12z"></path><path d="M222,178c2,-15 10,-23 23,-23c13,0 21,8 23,23c3,18 -1,22 -23,22c-22,0 -26,-4 -23,-22zM258,179c-2,-6 -8,-10 -13,-10c-5,0 -11,4 -13,10c-2,6 4,11 13,11c9,0 15,-5 13,-11z"></path><path d="M32,118c2,-15 10,-23 23,-23c13,0 21,8 23,23c3,18 -1,22 -23,22c-22,0 -26,-4 -23,-22zM70,114c0,-9 -5,-14 -12,-12c-18,6 -21,28 -4,28c9,0 16,-7 16,-16z"></path><path d="M93,124c-3,-8 -1,-20 5,-26c16,-16 42,-2 42,22c0,24 -38,28 -47,4zM130,114c0,-9 -5,-14 -12,-12c-18,6 -21,28 -4,28c9,0 16,-7 16,-16z"></path><path d="M160,121c0,-11 4,-22 9,-25c5,-4 7,4 3,16c-4,18 -2,20 16,16c12,-4 20,-2 16,3c-10,18 -44,10 -44,-10z"></path><path d="M220,136c0,-2 11,-6 25,-8c14,-3 25,-1 25,3c0,5 -11,9 -25,9c-14,0 -25,-2 -25,-4z"></path><path d="M200,100c-11,-11 -20,-25 -20,-31c0,-18 20,-49 32,-49c6,0 3,9 -6,19c-36,40 15,91 55,55c10,-9 19,-12 19,-6c0,12 -31,32 -49,32c-6,0 -20,-9 -31,-20z"></path><path d="M230,76c0,-8 4,-17 9,-20c5,-4 7,3 4,14c-6,23 -13,26 -13,6z"></path><path d="M32,58c2,-15 11,-24 26,-26c18,-3 22,1 22,22c0,21 -5,26 -26,26c-21,0 -25,-4 -22,-22zM70,54c0,-17 -22,-14 -28,4c-2,7 3,12 12,12c9,0 16,-7 16,-16z"></path><path d="M94,65c-8,-20 4,-35 27,-35c14,0 19,7 19,25c0,18 -5,25 -20,25c-11,0 -23,-7 -26,-15zM130,54c0,-17 -22,-14 -28,4c-2,7 3,12 12,12c9,0 16,-7 16,-16z"></path><path d="M160,55c0,-14 4,-25 9,-25c4,0 6,11 3,25c-6,32 -12,32 -12,0z"></path><path d="M260,35c-8,-9 -8,-15 -2,-15c12,0 26,19 19,26c-2,2 -10,-2 -17,-11z"></path></g></g></g></svg>