<svg version="1.1" xmlns="http://www.w3.org/2000/svg" xmlns:xlink="http://www.w3.org/1999/xlink" width="48.000000pt" height="48.000000pt" viewBox="0,0,256,256"><g fill="#ffffff" fill-rule="nonzero" stroke="none" stroke-width="1" stroke-linecap="butt" stroke-linejoin="miter" stroke-miterlimit="10" stroke-dasharray="" stroke-dashoffset="0" font-family="none" font-weight="none" font-size="none" text-anchor="none" style="mix-blend-mode: normal"><g transform="translate(0.2,-0.2) scale(5.33333,5.33333)"><g transform="translate(0,48) scale(0.1,-0.1)"><path d="M82,458c-17,-17 -17,-419 0,-436c17,-17 299,-17 316,0c8,8 12,62 12,178v166l-53,52l-53,52h-105c-68,0 -109,-4 -117,-12zM290,400v-50h50h51l-3,-157l-3,-158h-145h-145l-3,195c-1,107 0,200 2,207c4,9 32,13 101,13h95zM345,400l29,-30h-32c-29,0 -32,3 -32,30c0,17 1,30 3,30c2,0 16,-13 32,-30z"></path><path d="M140,260c0,-6 40,-10 100,-10c60,0 100,4 100,10c0,6 -40,10 -100,10c-60,0 -100,-4 -100,-10z"></path><path d="M140,180c0,-6 40,-10 100,-10c60,0 100,4 100,10c0,6 -40,10 -100,10c-60,0 -100,-4 -100,-10z"></path><path d="M140,100c0,-6 40,-10 100,-10c60,0 100,4 100,10c0,6 -40,10 -100,10c-60,0 -100,-4 -100,-10z"></path></g></g></g></svg>