<svg version="1.1" xmlns="http://www.w3.org/2000/svg" xmlns:xlink="http://www.w3.org/1999/xlink" width="48.000000pt" height="48.000000pt" viewBox="0,0,256,256"><g fill="#ffffff" fill-rule="nonzero" stroke="none" stroke-width="1" stroke-linecap="butt" stroke-linejoin="miter" stroke-miterlimit="10" stroke-dasharray="" stroke-dashoffset="0" font-family="none" font-weight="none" font-size="none" text-anchor="none" style="mix-blend-mode: normal"><g transform="scale(5.33333,5.33333)"><g transform="translate(0,48) scale(0.1,-0.1)"><path d="M210,451c0,-23 -35,-34 -51,-15c-16,20 -47,0 -51,-33c-2,-22 -9,-29 -31,-31c-33,-4 -53,-35 -33,-51c19,-16 8,-51 -15,-51c-14,0 -19,-7 -19,-30c0,-23 5,-30 19,-30c23,0 34,-35 15,-51c-20,-16 0,-47 33,-51c22,-2 29,-9 31,-31c4,-33 35,-53 51,-33c16,19 51,8 51,-15c0,-14 7,-19 30,-19c23,0 30,5 30,19c0,23 35,34 51,15c16,-20 47,0 51,33c2,22 9,29 31,31c33,4 53,35 33,51c-19,16 -8,51 15,51c14,0 19,7 19,30c0,23 -5,30 -19,30c-23,0 -34,35 -15,51c20,16 0,47 -33,51c-22,2 -29,9 -31,31c-4,33 -35,53 -51,33c-16,-19 -51,-8 -51,15c0,14 -7,19 -30,19c-23,0 -30,-5 -30,-19zM260,445c0,-22 41,-36 60,-20c21,17 40,8 40,-19c0,-28 18,-46 46,-46c27,0 36,-19 19,-40c-16,-19 -2,-60 20,-60c8,0 15,-9 15,-20c0,-11 -7,-20 -15,-20c-22,0 -36,-41 -20,-60c17,-21 8,-40 -19,-40c-28,0 -46,-18 -46,-46c0,-27 -19,-36 -40,-19c-19,16 -60,2 -60,-20c0,-8 -9,-15 -20,-15c-11,0 -20,7 -20,15c0,22 -41,36 -60,20c-21,-17 -40,-8 -40,19c0,28 -18,46 -46,46c-27,0 -36,19 -19,40c16,19 2,60 -20,60c-8,0 -15,9 -15,20c0,11 7,20 15,20c22,0 36,41 20,60c-17,21 -8,40 19,40c28,0 46,18 46,46c0,27 19,36 40,19c19,-16 60,-2 60,20c0,8 9,15 20,15c11,0 20,-7 20,-15z"></path><path d="M149,331c-35,-35 -39,-44 -39,-91c0,-47 4,-56 39,-91c35,-35 44,-39 91,-39c47,0 56,4 91,39c35,35 39,44 39,91c0,47 -4,56 -39,91c-35,35 -44,39 -91,39c-47,0 -56,-4 -91,-39zM326,326c30,-30 34,-40 34,-86c0,-46 -4,-56 -34,-86c-30,-30 -40,-34 -86,-34c-46,0 -56,4 -86,34c-30,30 -34,40 -34,86c0,46 4,56 34,86c30,30 40,34 86,34c46,0 56,-4 86,-34z"></path><path d="M164,316c-28,-28 -34,-42 -34,-76c0,-34 6,-48 34,-76c48,-48 104,-48 152,0c28,28 34,42 34,76c0,34 -6,48 -34,76c-28,28 -42,34 -76,34c-34,0 -48,-6 -76,-34zM311,311c64,-65 20,-171 -71,-171c-91,0 -135,106 -71,171c41,41 101,41 142,0z"></path><path d="M211,296c-9,-10 -9,-20 -2,-33c7,-15 5,-22 -10,-31c-10,-7 -19,-23 -19,-37c0,-24 3,-25 60,-25c57,0 60,1 60,25c0,14 -9,30 -19,37c-15,9 -17,16 -10,31c12,22 -4,47 -31,47c-10,0 -23,-6 -29,-14zM264,291c10,-16 -5,-41 -24,-41c-19,0 -34,25 -24,41c3,5 14,9 24,9c10,0 21,-4 24,-9zM288,204c3,-19 -2,-21 -47,-21c-41,0 -51,3 -51,17c0,26 11,31 55,28c32,-2 41,-7 43,-24z"></path></g></g></g></svg>